inDegrees=no
num_controls=7
num_derivatives=13
num_iterations=47
num_multipliers=7
num_parameters=0
num_slacks=7
num_states=26
objective=0.449131
objective_accelerations=0.056131
objective_balance=0.005952
objective_effort=0.035875
objective_height=0.347253
objective_ligament=0.003920
solver_duration=692.175144
status=Solve_Succeeded
success=true
DataType=double
version=3
OpenSimVersion=4.5
endheader
time	/jointset/ground_pelvis/pelvis_tilt/value	/jointset/ground_pelvis/pelvis_tx/value	/jointset/ground_pelvis/pelvis_ty/value	/jointset/hip_l/hip_flexion_l/value	/jointset/hip_l/hip_adduction_l/value	/jointset/hip_l/hip_rotation_l/value	/jointset/back/lumbar_extension/value	/jointset/patellofemoral_l/patellar_flexion_l/value	/jointset/knee_l/knee_flexion_l/value	/jointset/knee_l/knee_adduction_l/value	/jointset/knee_l/knee_rotation_l/value	/jointset/ankle_l/ankle_angle_l/value	/jointset/subtalar_l/subtalar_angle_l/value	/jointset/ground_pelvis/pelvis_tilt/speed	/jointset/ground_pelvis/pelvis_tx/speed	/jointset/ground_pelvis/pelvis_ty/speed	/jointset/hip_l/hip_flexion_l/speed	/jointset/hip_l/hip_adduction_l/speed	/jointset/hip_l/hip_rotation_l/speed	/jointset/back/lumbar_extension/speed	/jointset/patellofemoral_l/patellar_flexion_l/speed	/jointset/knee_l/knee_flexion_l/speed	/jointset/knee_l/knee_adduction_l/speed	/jointset/knee_l/knee_rotation_l/speed	/jointset/ankle_l/ankle_angle_l/speed	/jointset/subtalar_l/subtalar_angle_l/speed	/forceset/tau_hip_flexion_l	/forceset/tau_hip_adduction_l	/forceset/tau_hip_rotation_l	/forceset/tau_knee_flexion_l	/forceset/tau_ankle_angle_l	/forceset/tau_subtalar_angle_l	/forceset/tau_lumbar_extension	lambda_cid13_p0	lambda_cid13_p1	lambda_cid13_p2	lambda_cid13_p3	lambda_cid13_p4	lambda_cid13_p5	lambda_cid14_p0	/jointset/ground_pelvis/pelvis_tilt/accel	/jointset/ground_pelvis/pelvis_tx/accel	/jointset/ground_pelvis/pelvis_ty/accel	/jointset/hip_l/hip_flexion_l/accel	/jointset/hip_l/hip_adduction_l/accel	/jointset/hip_l/hip_rotation_l/accel	/jointset/back/lumbar_extension/accel	/jointset/patellofemoral_l/patellar_flexion_l/accel	/jointset/knee_l/knee_flexion_l/accel	/jointset/knee_l/knee_adduction_l/accel	/jointset/knee_l/knee_rotation_l/accel	/jointset/ankle_l/ankle_angle_l/accel	/jointset/subtalar_l/subtalar_angle_l/accel	gamma_cid13_p0	gamma_cid13_p1	gamma_cid13_p2	gamma_cid13_p3	gamma_cid13_p4	gamma_cid13_p5	gamma_cid14_p0
0	-0.1527054871438582	0.05578681934756094	0.8977569747539434	0.3774924667018715	-0.2625119895839134	-0.2130988261446142	-0.01265067647494873	0.03223648243721521	0.03223648243721463	-0.1744664558942972	0.1174025124356337	-0.04231377076293093	-0.01334084699516812	0	0	0	0	0	0	0	0	0	0	0	0	0	0.1203474123565818	-0.01004267687147892	-0.03552415822558234	-0.2649714175989535	0.2645743239942979	-0.07736810833693589	-0.07105030470187447	41.92903569493315	21.60487304395683	1.469875718192351	4.270625624643637	-589.0874914116263	-27.42560301105322	-37.42129656981716	-3.248188063158155	-1.987510694763244	-1.038193771675173	11.85972596517075	-1.004851551939474	3.055088128794368	-5.179204151911889	10.1922450438962	10.19224504389489	0.2386312290195887	0.4212816651734157	1.846838213250913	-0.6052387506243424	-1.27521872599988e-08	-1.170409377645039e-07	3.376421460546127e-07	-6.834746165055746e-08	1.477649147407181e-07	-1.819515741495317e-07	-6.037564022424005e-08
0.01	-0.152864342409654	0.05569282087814807	0.8977066009320673	0.378069990503438	-0.2625597380828986	-0.2129453512026691	-0.01291345849860142	0.03273671148324902	0.03273671148334555	-0.1744513622863713	0.1174198374553454	-0.04221772733180387	-0.01336780982257999	-0.03187992136055705	-0.01829495243877755	-0.01000549126418156	0.1148961016110904	-0.009269990498637111	0.03061914582326022	-0.05246809102439796	0.09981533058865344	0.09981533058864195	0.003490292019766012	0.003456861848659229	0.01982311025561692	-0.004976976788648507	0.1376771003619516	-0.02273307114775139	-0.04093108148774631	-0.3027217835653463	0.3248405891956263	-0.08056176995723557	-0.0814447939326329	61.26217357108369	20.26391789605847	0.9330580270945333	-13.14165720558147	-592.0959870360485	-31.86726982579066	-37.43642573258484	-3.174238819118132	-1.67478997113316	-0.9713062845759395	11.21324252268377	-0.8461413576003323	3.053890432748873	-5.267364520029179	9.841617349107372	9.841617349107704	0.4749836699268828	0.3066048008753912	2.142216255788918	-0.3816109482901857	-3.655867704417527e-08	9.118225573149887e-08	1.803193486234576e-07	-1.102595854363296e-09	-3.750949008778922e-08	-5.177856476147424e-08	-2.428505924755364e-08
0.02	-0.1533452658184546	0.05543101239381396	0.8975582563013753	0.3797782133737258	-0.2626918001986085	-0.2124879722777299	-0.01369827202103992	0.03422818189166862	0.03422818189162553	-0.1743872146620697	0.1174714743645616	-0.04190501903328762	-0.01343207917893911	-0.06441362858515272	-0.03356200298425212	-0.0195941617631979	0.2261398137665678	-0.01686272334828791	0.06078079659277592	-0.1044062997419261	0.1982482724875262	0.1982482724875071	0.009810803298229368	0.006862377943873371	0.04333297347404651	-0.007461305789601293	0.1550067883658713	-0.03542346542403438	-0.04633800475153287	-0.3404721495329149	0.3851068543963723	-0.08375543157765766	-0.09183928316398554	80.68103752749589	18.90967524381317	0.3963955226616048	-30.74096647960531	-593.8451313739421	-36.19263770548343	-37.48077382114153	-3.378945235965597	-1.38193031610256	-0.9548296186423106	11.12924807404758	-0.6694000221445405	2.963589118045386	-5.073227690537546	9.915767305939905	9.915767305939378	0.804675080754651	0.4110125144846965	2.584188805812949	-0.1067091930875635	-6.036516682835173e-08	2.994054492275017e-07	2.299655119230259e-08	6.614226994183087e-08	-2.227838949162966e-07	7.83944446265832e-08	1.180552172913278e-08
0.03	-0.1541527930983778	0.05502658963951107	0.8973153517923411	0.3825823847516941	-0.2628944126583571	-0.2117328008312016	-0.01499265700369342	0.03669362826132534	0.0366936282612462	-0.1742526246194739	0.1175572329810147	-0.04134792504956977	-0.01351380599192303	-0.09697548665206986	-0.04732458832960749	-0.02898880800023855	0.3342233198826127	-0.02369647343336069	0.09006072961546198	-0.1536906669487925	0.2942473475811402	0.2942473475811306	0.01686113500897406	0.01027454827925184	0.06778025707443815	-0.008992655937896228	0.1412788207810418	-0.02922152592772583	-0.04332124026017828	-0.3206967833229005	0.3566678211714076	-0.080509043177282	-0.08160726182270291	71.63197747220624	18.80681834058475	0.7296210404525643	-24.36499917251167	-593.6081352623986	-34.98098302745566	-37.55268210810006	-3.177357787097904	-1.373715210956791	-0.9321376254931206	10.57722292245012	-0.6959092593012087	2.881290006711398	-4.739036759100054	9.352927024677356	9.352927024679976	0.6183520672886678	0.3041139375946455	2.32916124292959	-0.192686525799745	-8.825840706936929e-08	2.349397174666633e-07	1.335472655136357e-07	8.547245093134251e-08	-3.559807211339578e-07	1.150340141658485e-08	-7.759088784077712e-09
0.04	-0.1552824492980894	0.05448448251831828	0.8969784297210732	0.386453255399199	-0.2631664719704839	-0.2106906111320179	-0.01675648476314397	0.0401012552646186	0.04010125526457617	-0.174054903289236	0.1176766722297594	-0.04055552560870215	-0.01361411402641096	-0.1288394125204524	-0.0610988763622347	-0.03839767421001739	0.4394796676813763	-0.03075209382306143	0.1181844471313765	-0.198294855089332	0.3866843992189312	0.386684399218933	0.02243706076179766	0.01359850439585441	0.09039406490588221	-0.01117755009023694	0.1275508531964393	-0.02301958643110979	-0.04030447576897846	-0.3009214171127177	0.3282287879465519	-0.07726265477657664	-0.07137524048137928	62.66207471289189	18.69700913609757	1.056068744932772	-18.17746415260558	-592.2217692387458	-33.65085549499916	-37.65065705973171	-3.239358796258359	-1.38427085355669	-0.9576736131901107	10.56381641059085	-0.7137740830722262	2.732346016690971	-4.137191877271913	9.203362614775171	9.203362614775012	0.5097938891664696	0.3933696707298212	2.217493652023162	-0.2374179938988089	-1.162359102064042e-07	1.648515336386735e-07	2.496211450257419e-07	1.038147002753555e-07	-4.881037828441791e-07	-5.945081813564154e-08	-2.847122901872939e-08
0.05	-0.1567254421121632	0.05380511196229586	0.8965473621178305	0.391362247874586	-0.2635089358749523	-0.2093727803235834	-0.01895100649984037	0.04441912233470255	0.04441912233469762	-0.1738059114861366	0.1178298132824146	-0.03954327528076926	-0.01373767024944588	-0.1594118082210786	-0.07471928217565373	-0.04780718260396719	0.5417112201020274	-0.03765197278286584	0.1452263413573519	-0.2406837628650732	0.4765774322322782	0.4765774322322672	0.02739214695835256	0.01705838293113197	0.1120087387703312	-0.01346290567489553	0.1228853976584352	-0.02145080052857354	-0.03954075679201204	-0.2970371806246667	0.3226575600548633	-0.07596864776383236	-0.06785047668530617	61.01712058452843	18.39754063880097	1.132938927280849	-17.50211535234213	-590.9349014650172	-33.48080779153705	-37.77248235594208	-2.914080795865627	-1.342511633297375	-0.9313885659953506	9.961671379644073	-0.6648294267235717	2.666769031101901	-4.300880819993125	8.835542120720532	8.835542120719815	0.493046170270104	0.3265652365021299	2.126361211137059	-0.2135294458229763	-1.131948511312239e-07	1.567682906275836e-07	2.316729787961e-07	1.053498884323051e-07	-5.353668584740115e-07	-4.557756168806504e-08	-2.525491315828782e-08
